<svg xmlns="http://www.w3.org/2000/svg" xmlns:svg="http://www.w3.org/2000/svg" xmlns:xlink="http://www.w3.org/1999/xlink" id="Lager_1" x="0" y="0" version="1.1" viewBox="0 0 525.8 482.2" style="enable-background:new 0 0 525.8 482.2" xml:space="preserve"><style type="text/css">.st0{fill:#222649}.st1,.st2{fill:#e29633;stroke:#fff;stroke-miterlimit:10}.st2{fill:none;stroke-width:2}.st3{fill:#fff}.st4{font-family:&apos;Poppins-Medium&apos;}.st5{font-size:17px}</style><rect id="rect1007" width="525.8" height="482.2" class="st0"/><rect width="104.2" height="32.6" x="310.9" y="386.8" class="st1"/><rect width="104.2" height="32.6" x="310.9" y="354.1" class="st1"/><rect width="104.2" height="32.6" x="310.9" y="321.4" class="st1"/><rect width="104.2" height="32.6" x="310.9" y="288.7" class="st1"/><rect width="104.2" height="32.6" x="310.9" y="256" class="st1"/><rect width="104.2" height="32.6" x="310.9" y="223.3" class="st1"/><rect width="104.2" height="32.6" x="310.9" y="190.7" class="st1"/><rect width="104.2" height="32.6" x="310.9" y="158" class="st1"/><rect width="104.2" height="32.6" x="310.9" y="125.3" class="st1"/><rect width="104.2" height="32.6" x="310.9" y="92.6" class="st1"/><g><path d="M229.7,109.3c21.9,0,43.9,0,65.9,0" class="st2"/><g><polygon points="293.8 115.2 304.2 109.2 293.8 103.3" class="st3"/></g></g><text id="text1354_00000005256367505110268620000002479841835059336871_" class="st3 st4 st5" transform="matrix(1 0 0 1 313.4232 71.0452)">Bytes buffer</text><g><path d="M229.7,207.1c21.9,0,43.9,0,65.9,0" class="st2"/><g><polygon points="293.8 213 304.2 207 293.8 201" class="st3"/></g></g><g><path d="M229.7,403.2c21.9,0,43.9,0,65.9,0" class="st2"/><g><polygon points="293.8 409.1 304.2 403.1 293.8 397.1" class="st3"/></g></g><g><path d="M229.7,305.1c21.9,0,43.9,0,65.9,0" class="st2"/><g><polygon points="293.8 311 304.2 305 293.8 299" class="st3"/></g></g><text id="text1354_00000000191495238654980990000012409685044327324815_" class="st3 st4 st5" transform="matrix(1 0 0 1 180.6007 112.4395)">start</text><text id="text1354_00000129891763925944521940000003391898141005991081_" class="st3 st4 st5" transform="matrix(1 0 0 1 111.9288 209.5346)">readPosition</text><text id="text1354_00000047031167397406097880000001578307249955265421_" class="st3 st4 st5" transform="matrix(1 0 0 1 110.5979 307.105)">writePosition</text><text id="text1354_00000015336292252440225900000011919839927564206720_" class="st3 st4 st5" transform="matrix(1 0 0 1 108.7676 405.8819)">realCapacity</text></svg>